<svg xmlns="http://www.w3.org/2000/svg" width="306" height="252" viewBox="0 0 306 252">
    <g fill="none" fill-rule="evenodd">
        <g fill="#D8E9F2" fill-rule="nonzero">
            <path d="M182.774 197.368c-2.96-3.29-7.072-5.778-10.45-8.629-4.265-3.575-8.42-7.325-12.324-11.294-2.292-2.346-4.934-4.463-5.022-7.807-.066-2.675 1.36-5.427 1.261-8.19-.074-2.956-.999-5.826-2.664-8.268-6.031-9.035-20.932-3.575-17.961 7.566 1.184 4.386-1.48 9.55-.395 14.375 1.261 5.482 4.869 10.164 8.772 14.133 3.904 3.97 7.95 7.676 12.116 11.327l1.207 1.009h-1.35l-22.192-.329c-14.379-.19-28.761-.303-43.147-.34l-41.974-.11c-14.079 0-30.087-1.864-43.772 1.996-6.513 1.831-6.272 11.03 0 12.982 10.779 3.29 23.246 2.621 34.441 2.895l34.99.845c23.31.555 46.63 1.008 69.955 1.36l16.327.23c4.934.076 10.077.504 14.825-1.097 9.572-3.29 14.89-14.287 7.357-22.654zM282.094 225.877c-6.82-24.54 3.87-52.335-11.041-74.945-7.007-10.625-18.005-17.116-26.404-26.403-3.99-4.53-7.54-9.427-10.603-14.628 0-3.29 0-6.666.055-9.868.139-10.863.051-21.736-.263-32.62-.33-10.856-.746-21.755-1.744-32.577-.998-10.823-1.414-22.522-6.14-32.511-1.71-3.597-7.61-2.621-8.476 1.096-2.357 10.23-.735 21.02-.22 31.404.538 10.866 1.196 21.71 1.481 32.576.22 8.282.307 16.557.263 24.825-.241.323-.403.699-.471 1.096-1.246 5.927-1.276 12.044-.088 17.983-.307 6.984-.318 14.057 1.721 20.504 1.174 3.717 6.985 5.625 9.485 2.314 6.908 8.311 15.844 14.44 22.5 23.026 7.566 9.715 7.15 22.599 6.733 34.276-.46 13.3-1.448 27.325 3.443 40.011 1.995 5.165 6.896 8.772 12.61 7.16 5.109-1.469 8.947-7.412 7.16-12.719zM252.061 210.11c-1.348-6.393-6.864-8.191-12.4-9.978-3.915-1.272-7.863-2.369-11.415-4.54-1.015-.623-1.957-1.359-2.807-2.193 2.476-1.86 3.867-4.83 3.714-7.923-.154-3.094-1.833-5.91-4.482-7.515-5.724-3.29-12.774-3.29-18.86-6.01-5.076-2.28-9.736-3.859-12.587-8.771-2.193-3.827-7.193-4.101-10.33-1.327-9.615 8.52.626 19.945 8.345 24.858 5.482 3.508 12.697 7.61 19.836 8.98 0 5.066 2.829 10.438 6.26 14.068 5.604 5.932 17.61 13.399 26.02 12.27 2.79-.308 5.323-1.775 6.98-4.042 1.655-2.267 2.282-5.125 1.726-7.877zM115.132 79.627c-3.224-4.463-7.676-4.463-12.873-4.188-2.807.153-5.614.405-8.421.647.888-5.483 1.03-11.261 1.425-15.998.789-10.74.384-21.533-1.206-32.182-.406-2.972-5.132-2.709-5.746 0-2.313 10.098-4.67 20.164-6.732 30.329-1.097 5.592-3.597 12.313-4.594 18.772-8.531.186-17.39.372-25.22 2.927-2.27.735-3.29 4.386-.723 5.548 8.267 3.882 18.169 4.54 27.489 4.726 1.028 1.42 2.626 2.317 4.372 2.456 1.747.14 3.467-.494 4.707-1.732.197-.197.35-.417.537-.614 4.704 0 9.463 0 14.123-.428 4.846-.427 10.603-.844 12.873-5.756.801-1.397.797-3.114-.011-4.507z" style="mix-blend-mode:multiply" transform="translate(1 1) translate(21.93 2.193)"/>
            <path d="M75.56 49.627c-2.727-1.622-5.841-2.478-9.014-2.478-1.1-3.937-3.703-7.284-7.248-9.32-2.25-1.266-4.799-1.902-7.38-1.842 0-3.937-.964-7.676-4.155-10.154-5.395-4.166-14.046-1.622-18.563 2.5-3.29 2.95.208 7.862 4.068 6.996 1.458-.241 6.721-1.765 7.302-1.338 1.426.943 0 6.941-1.26 8.64-4.047 5.483 4.725 11.996 9.352 7.215 1.163-1.184 6.152-2.192 4.638.987-1.798 3.827-.712 10.132 4.386 10.965 6.196.943 11.908 2.336 17.775-.296 5.098-2.291 3.98-9.342.098-11.875z" style="mix-blend-mode:multiply" transform="translate(1 1) translate(21.93 2.193)"/>
        </g>
        <g fill-rule="nonzero">
            <path fill="#D8E9F2" d="M236.349 121.59c.614 12.427 1.476 24.854 2.587 37.28l-.11.121c-13.475-11.973-20.778-25.877-27.247-25.877-2.818 0-4.134 2.697-4.134 5.263 0 5.702 6.426 15.044 8.87 20.614.524 1.212.978 2.453 1.36 3.717.307 1.02.604 2.095.878 3.202 1.348 5.241 2.478 11.272 4.791 16.93 3.586 8.772 9.967 16.6 24.2 19.221 1.974 5.867 3.794 11.777 5.603 17.687 4.605-.23 9.21-.428 13.827-.636-4.068-34.78-2.654-73.651-30.625-97.522z" transform="translate(1 1) translate(5.482)"/>
            <path fill="#B7D5E5" d="M236.02 114.682c.087 2.303.208 4.605.329 6.908 27.971 23.87 26.557 62.741 30.625 97.588 5.208-.242 10.416-.483 15.625-.779-13.191-55.241 6.184-52.895-46.58-103.717z" transform="translate(1 1) translate(5.482)"/>
            <path fill="#D8E9F2" d="M201.272 158.114c-4.638 1.261-9.123 2.368-13.564 3.29 6.206.11 12.39.296 18.564.614 3.805.186 7.61.438 11.403.734-.382-1.264-.836-2.505-1.36-3.717-2.192-5.055-7.675-13.158-8.694-18.914-.285.459-.444.984-.46 1.524 2.357 7.05 2.357 14.112-5.89 16.469zM141.239 123.97c-6.36-9.08-16.217-11.843-26.316-10.966 9.604 3.136 17.177 10.6 20.45 20.157 3.275 9.557 1.87 20.096-3.794 28.462l15.35-.165c3.535-12.736 1.464-26.375-5.69-37.489z" transform="translate(1 1) translate(5.482)"/>
            <path fill="#FFF" d="M235.307 53.827l-50.625.153c.196.99.291 1.996.285 3.005.01 2.272-.48 4.518-1.436 6.579-2.535 5.086-7.808 8.22-13.487 8.015-4.99.029-9.716-2.245-12.807-6.162-1.851-2.374-2.852-5.301-2.84-8.312-.007-1.032.1-2.061.318-3.07l-48.246.143.713 31.666.35 15.702.22 9.868c2.438.228 4.841.74 7.16 1.525 10.11-.834 19.967 1.93 26.316 10.965 7.177 11.129 9.252 24.796 5.702 37.554 4.024 0 8.037-.098 12.061-.131 4.489-.044 8.98-.066 13.476-.066 5.073 0 10.143.044 15.208.132 4.441-.91 8.926-2.018 13.564-3.29 8.246-2.357 8.246-9.419 5.888-16.447.018-.54.176-1.066.46-1.524-.109-.56-.167-1.13-.175-1.7 0-2.566 1.316-5.263 4.134-5.263 1.689 0 3.432.943 5.329 2.555 4.759.603 10.537 2.763 11.447 0 1.799-18.027 3.29-35.746 6.832-52.851v-8.991c-.011-4.803.065-11.996.153-20.055z" transform="translate(1 1) translate(5.482)"/>
            <path fill="#D8E9F2" d="M235.186 82.895c-3.53 17.105-5.032 34.824-6.83 52.85-.91 2.72-6.69.56-11.448 0 5.373 4.562 11.952 14.463 21.93 23.323l.11-.12c-1.316-14.745-2.289-29.485-2.917-44.222-.454-10.621-.735-21.232-.845-31.831z" transform="translate(1 1) translate(5.482)"/>
            <path fill="#0BDEF4" d="M235.932 2.193c0 10.636-.417 33.432-.625 51.678l-50.625.153c-1.239-6.667-6.7-11.612-14.857-11.612-7.133-.043-13.372 4.793-15.11 11.71l-48.246.143-1.206-53.99c24.057 1.403 42.873 5.043 75.8 5.043 18.334-.026 36.651-1.07 54.869-3.125z" transform="translate(1 1) translate(5.482)"/>
            <path fill="#D8E9F2" d="M223.344 182.873c-1.973 1.952-4.166 3.42-6.337 3.42-1.853 0-3.17-1.337-3.17-4.725.01-1.453.171-2.901.483-4.32.974-3.918 2.394-7.71 4.233-11.305 1.348 5.241 2.478 11.272 4.791 16.93z" transform="translate(1 1) translate(5.482)"/>
            <path fill="#D8E9F2" d="M217.675 162.741c.307 1.02.604 2.095.878 3.202-1.839 3.594-3.259 7.387-4.233 11.305-1.787 2.412-4.013 4.704-7.127 4.704-2.544 0-4.616-1.81-4.616-6.053 0-4.67 1.886-9.43 3.695-13.892 3.805.186 7.61.438 11.403.734z" transform="translate(1 1) translate(5.482)"/>
            <path fill="#FFF" d="M154.704 54.079c1.738-6.918 7.977-11.754 15.11-11.71 8.157 0 13.618 4.945 14.857 11.611.196.99.291 1.996.285 3.005.01 2.272-.48 4.518-1.436 6.579-1.702-2.675-4.694-4.248-7.862-4.134h-1.316c-1.349 0-3.037-.154-5.055-.154-6.085 0-9.068 2.193-12.061 6.13-1.851-2.374-2.852-5.301-2.84-8.312-.003-1.013.103-2.024.318-3.015zm15.35 4.671c2.128 0 2.786-2.95 2.786-5.263 0-2.851-.943-5.855-2.851-5.855-.594.03-1.162.248-1.623.625-1.322 1.186-2.015 2.922-1.875 4.693 0 3.793 1.963 5.8 3.564 5.8z" transform="translate(1 1) translate(5.482)"/>
            <path fill="#D8E9F2" d="M182.73 205.241v.724c0 2.308-1.858 4.186-4.166 4.21l-157.895 1.097c-1.236.009-2.424-.476-3.301-1.347-.877-.87-1.37-2.055-1.37-3.291 0-1.097 0-2.193-.066-3.29-.022-.215-.022-.432 0-.647l166.568.954c.147.518.224 1.052.23 1.59z" transform="translate(1 1) translate(5.482)"/>
            <path fill="#FFF" d="M182.544 203.695l-166.568-.954c.102-1.252.722-2.404 1.71-3.18l20.187-15.92v.624l121.645-1.853v-.405l21.02 18.333c1.003.88 1.704 2.054 2.006 3.355zm-63.026-7.774h.614c-.863-1.813-1.503-3.724-1.908-5.69-6.437-.11-12.873-.132-19.31-.132H80.976c-.998 1.853-2.193 3.607-3.388 5.35 1.337-.065 2.708-.087 4.057-.087 4.638 0 7.785.263 15.35.263h8.85c8.333-.022 9.616.296 13.673.296z" transform="translate(1 1) translate(5.482)"/>
            <path fill="#265D87" d="M183.52 63.596c-2.534 5.086-7.808 8.22-13.487 8.016-4.99.029-9.716-2.245-12.807-6.162 2.993-3.937 5.976-6.13 12.061-6.13 2.018 0 3.706.154 5.055.154h1.316c3.166-.117 6.157 1.452 7.862 4.122z" transform="translate(1 1) translate(5.482)"/>
            <path fill="#FFF" d="M172.84 53.487c0 2.313-.658 5.263-2.785 5.263-1.601 0-3.564-2.007-3.564-5.8-.144-1.775.55-3.515 1.875-4.704.46-.377 1.03-.596 1.623-.625 1.908.01 2.85 3.015 2.85 5.866z" transform="translate(1 1) translate(5.482)"/>
            <path fill="#D8E9F2" d="M131.579 161.623c-8.72 12.855-25.38 17.644-39.594 11.381 7.796 5.724 17.993 7.917 25.701 5.121 14.332-5.9 28.049-3.958 41.601-3.235-.124-4.525-.212-9.046-.263-13.563-9.156.077-18.311.22-27.445.296z" transform="translate(1 1) translate(5.482)"/>
            <path fill="#FFF" d="M117.686 178.125c-7.675 2.807-17.916.603-25.668-5.12-13.923-6.134-21.646-21.182-18.512-36.07 3.135-14.887 16.27-25.543 31.483-25.542.932 0 1.853 0 2.774.12l-.22-9.868-69.67 1.096v81.634l121.645-1.853v-.406c-.088-2.38-.154-4.77-.22-7.149-13.563-.8-27.28-2.741-41.612 3.158zM63.498 126.59c-1.897.099-4.529.153-8.388.153-1.744 0-3.487 0-5.22-.065v-.285c0-3.674.121-7.347.176-10.965h1.239c4.068 0 8.158.296 12.215.307 0 2.247-.077 4.506-.077 6.754 0 1.283.022 2.675.055 4.057v.044z" transform="translate(1 1) translate(5.482)"/>
            <path fill="#1CF6A5" d="M90.614 168.706c14.824 3.562 30.21-3.155 37.675-16.447 4.65-10.088 3.674-21.195-.899-30.976-5.39-5.614-12.64-9.074-20.394-9.737-.921-.088-1.853-.12-2.785-.12-10.492.011-20.32 5.137-26.334 13.733-6.014 8.597-7.46 19.586-3.875 29.446 3.499 6.677 9.455 11.734 16.612 14.101zm12.829-45.767l18.048 18.837-12.061.285c.822 5.34 1.414 10.702 2.489 15.998-4.912.46-9.945.362-14.901.68.175-5.482.383-10.965.471-16.382l-12.248.297 18.202-19.715z" transform="translate(1 1) translate(5.482)"/>
            <path fill="#1ADE9D" d="M127.39 121.25c4.573 9.78 5.549 20.833.9 30.976-7.466 13.292-22.852 20.01-37.676 16.447-7.15-2.36-13.107-7.403-16.612-14.068 4.514 12.293 16.028 20.623 29.115 21.064 13.088.442 25.137-7.094 30.469-19.054 5.331-11.96 2.881-25.96-6.196-35.398v.033z" transform="translate(1 1) translate(5.482)"/>
            <path fill="#FFF" d="M104.221 122.939l18.049 18.837-12.062.285c.823 5.34 1.426 10.702 2.5 15.998-4.912.46-9.956.362-14.912.68.186-5.482.395-10.965.472-16.382l-12.237.297 18.19-19.715z" transform="translate(1 1) translate(5.482)"/>
            <path fill="#265D87" d="M120.175 195.921h-.657c-4.101 0-5.384-.318-13.63-.318H97.04c-7.61 0-10.756-.263-15.35-.263-1.35 0-2.72 0-4.057.088 1.162-1.744 2.39-3.498 3.388-5.351h17.938c6.437 0 12.873 0 19.31.131.403 1.975 1.044 3.893 1.907 5.713z" transform="translate(1 1) translate(5.482)"/>
            <path fill="#D8E9F2" d="M107.193 85.888l.35 15.702-69.67 1.096V92.654c.006-3.445 2.784-6.242 6.228-6.272l63.092-.494zm-38.575 9.08c-.002-.145-.036-.287-.098-.418-.344-.519-.888-.872-1.502-.975-.513.336-.819.91-.812 1.524.295.447.765.75 1.294.833.566.015 1.05-.403 1.118-.965zm-8.311.142c0-.856-1.096-1.492-1.6-1.492h-.154c-.51.216-.872.68-.954 1.228 0 .636.844 1.01 1.59 1.01.745 0 1.118-.22 1.118-.746zm-10.241.69c.249.006.49-.088.67-.26.178-.174.28-.411.284-.66-.058-.698-.618-1.248-1.316-1.294-.098-.012-.198-.012-.296 0-.272.305-.44.689-.483 1.096-.006.302.113.594.329.806.216.211.51.325.812.312z" transform="translate(1 1) translate(5.482)"/>
            <path fill="#FFF" d="M68.52 94.55c.062.13.096.273.098.417-.066.554-.538.969-1.096.965-.53-.084-.999-.386-1.294-.833-.007-.613.299-1.188.811-1.524.607.108 1.142.461 1.48.975z" transform="translate(1 1) translate(5.482)"/>
            <path fill="#3DA3F3" d="M63.52 115.625c0 2.248-.077 4.507-.077 6.754v4.167c-1.897.099-4.529.154-8.388.154-1.744 0-3.487 0-5.22-.066v-.285c0-3.674.121-7.347.176-10.965h1.239c4.123-.066 8.213.23 12.27.241z" transform="translate(1 1) translate(5.482)"/>
            <path fill="#FFF" d="M63.684 46.107c-.252 3.082-1.096 6.503-3.465 7.742-.352-.186-.665-.44-.92-.746.494-2.814 2.068-5.324 4.385-6.996zM58.706 93.618c.56 0 1.601.636 1.601 1.492 0 .526-.526.756-1.096.756-.57 0-1.59-.373-1.59-1.009.082-.547.443-1.012.954-1.228l.131-.01zM51.02 94.88c-.003.249-.106.486-.285.66-.18.172-.42.266-.67.26-.605 0-1.096-.49-1.096-1.096.042-.407.211-.79.483-1.097.098-.011.197-.011.296 0 .673.066 1.207.599 1.272 1.272zM36.36 54.583c.046 1.398-.577 2.734-1.678 3.597l-.976-.165c-1.58-1.986-2.429-4.457-2.401-6.995.003-1.265.14-2.525.406-3.761 2.722 1.462 4.484 4.239 4.649 7.324z" transform="translate(1 1) translate(5.482)"/>
            <path fill="#3DA3F3" d="M276.579 95.987L273.509 89.956 270.439 95.987 271.853 95.987 271.853 107.939 275 107.939 275 95.987z" transform="translate(1 1) translate(5.482)"/>
            <path fill="#1CF6A5" d="M284.452 99.846L281.393 93.816 278.322 99.846 279.726 99.846 279.726 107.939 282.884 107.939 282.884 99.846z" transform="translate(1 1) translate(5.482)"/>
            <path fill="#0BDEF4" d="M268.936 102.423L265.866 96.393 262.807 102.423 264.211 102.423 264.211 107.939 267.357 107.939 267.357 102.423z" transform="translate(1 1) translate(5.482)"/>
            <path fill="#1CF6A5" d="M12.566 162.61L9.781 157.138 7.007 162.61 8.279 162.61 8.279 173.432 11.14 173.432 11.14 162.61z" transform="translate(1 1) translate(5.482)"/>
            <path fill="#0BDEF4" d="M19.704 166.107L16.919 160.647 14.145 166.107 15.417 166.107 15.417 173.432 18.268 173.432 18.268 166.107z" transform="translate(1 1) translate(5.482)"/>
            <path fill="#3DA3F3" d="M5.647 168.443L2.862 162.971 0.088 168.443 1.36 168.443 1.36 173.432 4.211 173.432 4.211 168.443z" transform="translate(1 1) translate(5.482)"/>
        </g>
        <g stroke="#265D87" stroke-linecap="round" stroke-linejoin="round" stroke-width="1.7">
            <path d="M115.91 142.061l12.061-.285-17.993-18.837-18.246 19.736 12.248-.296c-.087 5.483-.296 10.965-.471 16.382 4.956-.318 9.989-.22 14.901-.68-1.085-5.318-1.678-10.68-2.5-16.02zM244.693 158.904c-1.316-14.745-2.288-29.485-2.917-44.222-.584-13.59-.877-27.182-.877-40.778 0-4.847.077-12.062.165-20.077.219-18.246.58-41.042.625-51.678-18.203 2.068-36.506 3.126-54.825 3.169-32.895 0-51.743-3.64-75.8-5.044l1.206 53.947.712 31.667.351 15.702.22 9.868M137.368 161.623c9.101-.077 18.257-.22 27.413-.296 4.488-.044 8.98-.066 13.476-.066 11.282 0 22.554.175 33.782.746 3.794.186 7.6.438 11.393.734" transform="translate(1 1)"/>
            <path d="M132.884 17.906v.098c.625 5.285.296 10.636.702 15.932" transform="translate(1 1)"/>
            <path d="M129.901 20.044c.757-.505 1.81-1.272 2.994-2.04 2.193-1.414 4.759-2.84 6.842-2.84.539-.013 1.073.103 1.557.34.043.29.065.584.066.878 0 3.497-3.717 5.833-6.294 7.927.307 3.553 4.452 6.908 6.677 9.496M148.026 15.35c-.055 3.795-.153 7.578-.153 11.382 0 1.897 0 3.805.088 5.713M147.632 15.12c2.193-.208 4.462-.208 6.644-.515M148.279 32.895c1.853-.428 3.706-.932 5.592-1.305M148.279 24.32c1.502-.252 3.015-.438 4.506-.713M166.217 14.485c-3.958 1.611-5.592 4.309-5.592 5.943 0 3.64 8.476 2.335 8.476 5.58 0 2.94-5.724 6.854-7.83 7.994M174.123 16.195c0 2.029-.285 4.693-.285 7.358 0 3.476 1.096 9.342 3.936 9.342 3.52 0 5.384-7.27 5.384-11.92 0-1.25 0-2.5-.143-3.705M186.316 33.728c1.91-5.085 3.446-10.304 4.594-15.614 1.645 5.022 2.96 10.22 5.483 14.901 2.807-4.791 3.65-9.868 4.736-15.197 1.788 5.362 2.676 11.075 4.858 16.294M217.105 14.88c-2.34.37-4.64.954-6.875 1.743.406 5.614.362 11.26.57 16.886 2.364-.623 4.762-1.107 7.182-1.448M210.877 24.956c1.625-.333 3.232-.75 4.814-1.25M190.428 53.98c-1.24-6.666-6.689-11.612-14.858-11.612-7.133-.043-13.372 4.793-15.11 11.71-.213 1.01-.32 2.04-.317 3.071-.007 3.01.993 5.935 2.84 8.312 3.091 3.917 7.816 6.19 12.806 6.162 5.682.203 10.956-2.936 13.487-8.027.957-2.06 1.447-4.307 1.437-6.578.008-1.02-.087-2.038-.285-3.038z" transform="translate(1 1)"/>
            <path d="M112.237 54.221L160.461 54.079 160.471 54.079M190.439 53.98L241.064 53.827M162.982 65.46c2.994-3.936 5.976-6.129 12.062-6.129 2.017 0 3.706.154 5.055.154h1.315c3.164-.12 6.155 1.445 7.862 4.111M174.123 48.246c-1.322 1.186-2.015 2.922-1.875 4.693 0 3.793 1.963 5.8 3.563 5.8 2.128 0 2.785-2.95 2.785-5.263 0-2.851-.932-5.855-2.84-5.855-.597.03-1.169.248-1.633.625h0zM151.897 85c4.65.077 9.276.175 13.914.175 13.487 0 18.476-.866 27.862-.866 1.82 0 3.652 0 5.483.154M154.046 94.836L162.588 94.836M168.147 95.044c4.013-.274 8.06-.362 12.116-.362 5.581 0 11.184.154 16.722.154M152.763 104.452c8.772.131 17.544.087 26.316.186M186.952 104.452L198.706 104.452M153.827 114.035c2.85.22 5.712 0 8.552.263M170.066 114.715c5.745 0 11.557.362 17.335.362 2.928 0 5.856-.099 8.772-.373M155.965 123.695h5.647c1.535 0 3.07 0 4.616-.131M176.272 123.268c7.116 0 14.254.318 21.37.394M258.904 219.78c-1.799-5.91-3.63-11.82-5.604-17.686-14.254-2.62-20.614-10.482-24.2-19.221-2.313-5.658-3.442-11.689-4.79-16.93-.275-1.097-.571-2.193-.878-3.202-.377-1.265-.831-2.507-1.36-3.717-2.445-5.57-8.87-14.912-8.87-20.614 0-2.566 1.316-5.263 4.134-5.263 6.469 0 13.771 13.903 27.247 25.877 1.36 1.199 2.785 2.38 4.277 3.542M241.776 114.682c52.763 50.822 33.443 48.476 46.601 103.684M212.04 162.007c-1.82 4.462-3.707 9.221-3.707 13.892 0 4.244 2.073 6.053 4.617 6.053 3.114 0 5.34-2.292 7.127-4.704" transform="translate(1 1)"/>
            <path d="M224.31 165.943c-1.84 3.594-3.26 7.387-4.233 11.305-.312 1.419-.474 2.867-.483 4.32 0 3.388 1.316 4.726 3.17 4.726 2.192 0 4.385-1.47 6.337-3.421M247.675 245.724v-.11-9.31c0-5.328-.076-10.657-.482-15.975 3.889-.22 7.785-.417 11.689-.592 9.813-.472 19.638-.866 29.451-1.415l5.845-.361c-.078 8.636.79 17.254 2.587 25.701M156.283 228.125c.186 2.489.164 4.989.34 7.467M156.864 243.333v2.5c0 1.152 0 2.314.11 3.465M147.336 239.167L152.412 239.167M159.254 239.759c2.895 0 5.757-.132 8.652-.362M9.518 113.586c.219 2.467.372 4.967.482 7.445M10.417 129.386c0 2.95.131 5.998.362 8.947M0 125.504c1.875-.164 3.772-.197 5.658-.24M12.5 125.504c3.19-.186 6.404-.11 9.572-.504M69.44 46.107c1.306-1.071 2.92-1.698 4.606-1.787 4.134 0 5.877 4.825 5.877 9.002-.032 1.787-.2 3.568-.504 5.33 2.862.076 5.713.186 8.552.186 1.678 0 3.29 0 5.011-.132" transform="translate(1 1)"/>
            <path d="M69.44 46.107c-.251 3.082-1.096 6.503-3.464 7.742-.353-.186-.666-.44-.921-.746.494-2.814 2.068-5.324 4.386-6.996h0z" transform="translate(1 1)"/>
            <path d="M37.467 47.259C39.726 36.535 50.965 26.94 58.3 26.94c7.588 0 11.283 8.772 11.283 16.535 0 .811 0 1.7-.11 2.631M37.467 47.259c2.725 1.46 4.491 4.237 4.66 7.324.044 1.4-.584 2.736-1.688 3.597l-.965-.165c-1.581-1.986-2.43-4.457-2.402-6.995 0-1.264.133-2.525.395-3.761zM2.072 65.406c5.932 0 11.853 0 17.785-.11 1.415-13.355 9.693-18.64 15.264-18.64.815.006 1.618.201 2.346.57M276.963 37.829c.346 2.18.577 4.375.69 6.579M277.95 52.873c.175 2.5.307 5.022.361 7.533M267.061 48.914c2.248 0 4.485-.153 6.733-.175M281.118 48.52h2.04c2.292 0 4.583 0 6.886-.22M43.629 102.664L113.3 101.59M137.368 161.623c6.407-9.446 7.33-21.578 2.425-31.884-4.905-10.306-14.903-17.241-26.273-18.226-.91-.088-1.842-.12-2.774-.12-15.32 0-28.516 10.802-31.54 25.82-3.024 15.019 4.962 30.087 19.089 36.015 14.126 5.929 30.474 1.073 39.073-11.605z" transform="translate(1 1)"/>
            <path d="M112.939 85.888l-63.093.494c-3.444.03-6.222 2.827-6.228 6.272v91.644l121.645-1.853v-.406c-.263-6.896-.406-13.815-.482-20.712" transform="translate(1 1)"/>
            <path d="M165.263 182.018l21.02 18.333c.996.862 1.7 2.01 2.017 3.29.129.505.191 1.024.187 1.545v.724c0 2.308-1.859 4.187-4.167 4.21l-157.895 1.097c-1.235.009-2.424-.476-3.3-1.347-.877-.87-1.37-2.055-1.37-3.291 0-1.097 0-2.193-.066-3.29-.023-.215-.023-.431 0-.646.139-1.224.773-2.337 1.754-3.082l20.186-15.92" transform="translate(1 1)"/>
            <path d="M21.721 202.741L21.732 202.741 188.3 203.695M124.024 190.23c.405 1.967 1.046 3.878 1.908 5.691h-.614c-4.1 0-5.384-.318-13.63-.318h-8.848c-7.61 0-10.757-.263-15.351-.263-1.349 0-2.72 0-4.057.088 1.162-1.744 2.39-3.498 3.388-5.351h17.939c6.392.022 12.829.044 19.265.153zM55.822 115.329h1.196c4.068 0 8.157.296 12.214.307 0 2.248-.076 4.507-.076 6.754v4.167c-1.897.099-4.529.154-8.388.154-1.744 0-3.487 0-5.22-.066v-.285c.099-3.685.22-7.358.274-11.031zM55.164 93.63c-.271.305-.44.689-.482 1.096 0 .605.49 1.096 1.097 1.096.249.006.49-.088.669-.26.18-.174.282-.412.284-.66-.058-.698-.617-1.248-1.315-1.295-.085 0-.17.007-.253.022zM64.31 93.63c-.51.215-.872.68-.955 1.227 0 .636.845 1.01 1.59 1.01.746 0 1.097-.231 1.097-.757 0-.856-1.097-1.492-1.601-1.492l-.132.011zM72.774 93.575c-.513.336-.818.91-.811 1.524.295.447.764.75 1.294.833.557.004 1.03-.411 1.096-.965-.003-.144-.036-.286-.099-.417-.338-.514-.874-.867-1.48-.975z" transform="translate(1 1)"/>
        </g>
    </g>
</svg>
